<mxfile host="65bd71144e">
    <diagram id="YkRjCLJKrs3qjugcYXS1" name="Page-1">
        <mxGraphModel dx="791" dy="394" grid="1" gridSize="10" guides="1" tooltips="1" connect="1" arrows="1" fold="1" page="1" pageScale="1" pageWidth="1169" pageHeight="827" math="0" shadow="0">
            <root>
                <mxCell id="0"/>
                <mxCell id="1" parent="0"/>
                <mxCell id="2" value="" style="edgeStyle=none;html=1;" edge="1" parent="1" source="4" target="8">
                    <mxGeometry relative="1" as="geometry"/>
                </mxCell>
                <mxCell id="3" style="edgeStyle=none;rounded=0;html=1;strokeColor=default;" edge="1" parent="1" source="4">
                    <mxGeometry relative="1" as="geometry">
                        <mxPoint x="605" y="220" as="targetPoint"/>
                        <Array as="points">
                            <mxPoint x="750" y="286"/>
                            <mxPoint x="750" y="220"/>
                        </Array>
                    </mxGeometry>
                </mxCell>
                <mxCell id="4" value="¿El sensor captó un nuevo paquete?" style="rhombus;whiteSpace=wrap;html=1;" vertex="1" parent="1">
                    <mxGeometry x="520" y="241" width="170" height="89" as="geometry"/>
                </mxCell>
                <mxCell id="5" value="" style="edgeStyle=none;html=1;entryX=0.5;entryY=0;entryDx=0;entryDy=0;" edge="1" parent="1" source="6" target="4">
                    <mxGeometry relative="1" as="geometry">
                        <mxPoint x="605" y="236" as="targetPoint"/>
                    </mxGeometry>
                </mxCell>
                <mxCell id="6" value="Inicio" style="rounded=1;whiteSpace=wrap;html=1;" vertex="1" parent="1">
                    <mxGeometry x="575" y="176" width="60" height="30" as="geometry"/>
                </mxCell>
                <mxCell id="7" value="" style="edgeStyle=none;html=1;" edge="1" parent="1" source="8" target="10">
                    <mxGeometry relative="1" as="geometry"/>
                </mxCell>
                <mxCell id="8" value="Enviar información en tiempo real" style="whiteSpace=wrap;html=1;" vertex="1" parent="1">
                    <mxGeometry x="545" y="360" width="120" height="60" as="geometry"/>
                </mxCell>
                <mxCell id="9" style="edgeStyle=none;html=1;strokeColor=default;rounded=0;" edge="1" parent="1" source="10">
                    <mxGeometry relative="1" as="geometry">
                        <mxPoint x="605" y="220" as="targetPoint"/>
                        <Array as="points">
                            <mxPoint x="605" y="550"/>
                            <mxPoint x="500" y="550"/>
                            <mxPoint x="500" y="220"/>
                        </Array>
                    </mxGeometry>
                </mxCell>
                <mxCell id="10" value="Mostrar en App" style="whiteSpace=wrap;html=1;" vertex="1" parent="1">
                    <mxGeometry x="545" y="450" width="120" height="60" as="geometry"/>
                </mxCell>
                <mxCell id="11" value="Si" style="text;html=1;strokeColor=none;fillColor=none;align=center;verticalAlign=middle;whiteSpace=wrap;rounded=0;" vertex="1" parent="1">
                    <mxGeometry x="600" y="330" width="30" height="20" as="geometry"/>
                </mxCell>
                <mxCell id="12" value="No" style="text;html=1;strokeColor=none;fillColor=none;align=center;verticalAlign=middle;whiteSpace=wrap;rounded=0;" vertex="1" parent="1">
                    <mxGeometry x="720" y="250" width="30" height="16" as="geometry"/>
                </mxCell>
            </root>
        </mxGraphModel>
    </diagram>
</mxfile>